<?xml version="1.0" encoding="iso-8859-1"?>
<!-- Generator: Adobe Illustrator 19.0.0, SVG Export Plug-In . SVG Version: 6.00 Build 0)  -->
<svg xmlns="http://www.w3.org/2000/svg" xmlns:xlink="http://www.w3.org/1999/xlink" version="1.1" id="Layer_1" x="0px" y="0px" viewBox="0 0 512 512" style="enable-background:new 0 0 512 512;" xml:space="preserve">
<g>
	<g>
		<polygon points="445.217,278.261 445.217,166.957 411.826,166.957 411.826,100.174 378.435,100.174 378.435,66.783     345.043,66.783 345.043,33.391 311.652,33.391 311.652,0 200.348,0 200.348,33.391 166.957,33.391 166.957,66.783 133.565,66.783     133.565,100.174 100.174,100.174 100.174,166.957 66.783,166.957 66.783,278.261 33.391,278.261 33.391,311.652 66.783,311.652     66.783,345.043 100.174,345.043 100.174,411.826 166.957,411.826 166.957,445.217 345.043,445.217 345.043,411.826     411.826,411.826 411.826,345.043 445.217,345.043 445.217,311.652 478.609,311.652 478.609,278.261   "/>
	</g>
</g>
<g>
	<g>
		<rect y="311.652" width="33.391" height="66.783"/>
	</g>
</g>
<g>
	<g>
		<rect x="66.783" y="445.217" width="66.783" height="33.391"/>
	</g>
</g>
<g>
	<g>
		<rect x="133.565" y="478.609" width="244.87" height="33.391"/>
	</g>
</g>
<g>
	<g>
		<rect x="378.435" y="445.217" width="66.783" height="33.391"/>
	</g>
</g>
<g>
	<g>
		<rect x="445.217" y="378.435" width="33.391" height="66.783"/>
	</g>
</g>
<g>
	<g>
		<rect x="478.609" y="311.652" width="33.391" height="66.783"/>
	</g>
</g>
<g>
	<g>
		<rect x="33.391" y="378.435" width="33.391" height="66.783"/>
	</g>
</g>
<g>
</g>
<g>
</g>
<g>
</g>
<g>
</g>
<g>
</g>
<g>
</g>
<g>
</g>
<g>
</g>
<g>
</g>
<g>
</g>
<g>
</g>
<g>
</g>
<g>
</g>
<g>
</g>
<g>
</g>
</svg>
