<?xml version="1.0" encoding="iso-8859-1"?>
<!-- Generator: Adobe Illustrator 19.0.0, SVG Export Plug-In . SVG Version: 6.00 Build 0)  -->
<svg xmlns="http://www.w3.org/2000/svg" xmlns:xlink="http://www.w3.org/1999/xlink" version="1.1" id="Layer_1" x="0px" y="0px" viewBox="0 0 512 512" style="enable-background:new 0 0 512 512;" xml:space="preserve">
<g>
	<g>
		<polygon points="478.609,83.478 478.609,50.087 445.217,50.087 445.217,16.696 289.391,16.696 289.391,50.087 256,50.087     256,83.478 222.609,83.478 222.609,116.87 278.261,116.87 278.261,150.261 311.652,150.261 311.652,183.652 278.261,183.652     278.261,150.261 133.565,150.261 133.565,183.652 100.174,183.652 100.174,239.304 478.609,239.304 478.609,205.913 512,205.913     512,83.478   "/>
	</g>
</g>
<g>
	<g>
		<polygon points="478.609,306.087 478.609,272.696 333.913,272.696 333.913,306.087 300.522,306.087 300.522,372.87 267.13,372.87     267.13,306.087 300.522,306.087 300.522,272.696 189.217,272.696 189.217,306.087 155.826,306.087 155.826,372.87 122.435,372.87     122.435,306.087 155.826,306.087 155.826,272.696 33.391,272.696 33.391,306.087 0,306.087 0,428.522 33.391,428.522     33.391,461.913 66.783,461.913 66.783,495.304 445.217,495.304 445.217,461.913 478.609,461.913 478.609,428.522 512,428.522     512,306.087   "/>
	</g>
</g>
<g>
</g>
<g>
</g>
<g>
</g>
<g>
</g>
<g>
</g>
<g>
</g>
<g>
</g>
<g>
</g>
<g>
</g>
<g>
</g>
<g>
</g>
<g>
</g>
<g>
</g>
<g>
</g>
<g>
</g>
</svg>
