<?xml version="1.0" encoding="iso-8859-1"?>
<!-- Generator: Adobe Illustrator 19.0.0, SVG Export Plug-In . SVG Version: 6.00 Build 0)  -->
<svg xmlns="http://www.w3.org/2000/svg" xmlns:xlink="http://www.w3.org/1999/xlink" version="1.1" id="Layer_1" x="0px" y="0px" viewBox="0 0 512 512" style="enable-background:new 0 0 512 512;" xml:space="preserve">
<g>
	<g>
		<polygon points="478.609,100.174 478.609,66.783 445.217,66.783 445.217,33.391 378.435,33.391 378.435,0 133.565,0     133.565,33.391 345.043,33.391 345.043,66.783 378.435,66.783 378.435,100.174 411.826,100.174 411.826,189.217 378.435,189.217     378.435,222.609 345.043,222.609 345.043,478.609 100.174,478.609 100.174,222.609 66.783,222.609 66.783,512 445.217,512     445.217,222.609 478.609,222.609 478.609,189.217 512,189.217 512,100.174   "/>
	</g>
</g>
<g>
	<g>
		<rect x="33.391" y="189.217" width="33.391" height="33.391"/>
	</g>
</g>
<g>
	<g>
		<rect x="33.391" y="66.783" width="33.391" height="33.391"/>
	</g>
</g>
<g>
	<g>
		<rect x="66.783" y="33.391" width="66.783" height="33.391"/>
	</g>
</g>
<g>
	<g>
		<rect y="100.174" width="33.391" height="89.043"/>
	</g>
</g>
<g>
</g>
<g>
</g>
<g>
</g>
<g>
</g>
<g>
</g>
<g>
</g>
<g>
</g>
<g>
</g>
<g>
</g>
<g>
</g>
<g>
</g>
<g>
</g>
<g>
</g>
<g>
</g>
<g>
</g>
</svg>
