<?xml version="1.0" encoding="iso-8859-1"?>
<!-- Generator: Adobe Illustrator 19.0.0, SVG Export Plug-In . SVG Version: 6.00 Build 0)  -->
<svg xmlns="http://www.w3.org/2000/svg" xmlns:xlink="http://www.w3.org/1999/xlink" version="1.1" id="Layer_1" x="0px" y="0px" viewBox="0 0 512 512" style="enable-background:new 0 0 512 512;" xml:space="preserve">
<g>
	<g>
		<rect x="228.174" y="478.609" width="55.652" height="33.391"/>
	</g>
</g>
<g>
	<g>
		<polygon points="473.043,200.348 473.043,166.957 439.652,166.957 439.652,133.565 384,133.565 384,66.783 350.609,66.783     350.609,33.391 317.217,33.391 317.217,0 194.783,0 194.783,33.391 161.391,33.391 161.391,66.783 128,66.783 128,133.565     72.348,133.565 72.348,166.957 38.957,166.957 38.957,200.348 5.565,200.348 5.565,300.522 38.957,300.522 38.957,333.913     72.348,333.913 72.348,367.304 161.391,367.304 194.783,367.304 194.783,478.609 228.174,478.609 228.174,367.304     228.174,300.522 194.783,300.522 161.391,300.522 161.391,267.13 128,267.13 128,233.739 161.391,233.739 161.391,267.13     239.304,267.13 239.304,133.565 272.696,133.565 272.696,233.739 272.696,267.13 350.609,267.13 350.609,233.739 384,233.739     384,267.13 350.609,267.13 350.609,300.522 317.217,300.522 283.826,300.522 283.826,367.304 283.826,478.609 317.217,478.609     317.217,367.304 350.609,367.304 384,367.304 439.652,367.304 439.652,333.913 473.043,333.913 473.043,300.522 506.435,300.522     506.435,200.348   "/>
	</g>
</g>
<g>
</g>
<g>
</g>
<g>
</g>
<g>
</g>
<g>
</g>
<g>
</g>
<g>
</g>
<g>
</g>
<g>
</g>
<g>
</g>
<g>
</g>
<g>
</g>
<g>
</g>
<g>
</g>
<g>
</g>
</svg>
