<svg xmlns="http://www.w3.org/2000/svg" viewBox="0 0 512 512" shape-rendering="crispEdges"><path d="M256 122.435h44.522v44.522H256z"/><path d="M478.609 166.957v-66.783h-33.391V66.783h-33.391V33.391h-33.391V0H267.13v33.391h-55.652v33.391h-44.522v33.391h-44.522v33.391H77.913v33.391H33.391v33.391H0V512H512V166.957h-33.391zm-256-33.392v-11.13H256V89.044h44.522v33.391h33.391v44.522h-33.391v33.391H256v-33.391h-33.391v-33.392zm-33.392 244.87h-33.391v33.391h-44.522v-33.391H77.913v-44.522h33.391v-33.391h44.522v33.391h33.391v44.522zm256 33.391h-33.391v33.391h-66.783v-33.391h-33.391v-66.782h33.391v-33.391h66.783v33.391h33.391v66.782zm33.392-144.696H33.391v-33.391h445.218v33.391z"/><path d="M111.304 333.913h44.522v44.522h-44.522zM345.043 345.043h66.783v66.783h-66.783z"/></svg>