<?xml version="1.0" encoding="iso-8859-1"?>
<!-- Generator: Adobe Illustrator 19.0.0, SVG Export Plug-In . SVG Version: 6.00 Build 0)  -->
<svg xmlns="http://www.w3.org/2000/svg" xmlns:xlink="http://www.w3.org/1999/xlink" version="1.1" id="Layer_1" x="0px" y="0px" viewBox="0 0 512 512" style="enable-background:new 0 0 512 512;" xml:space="preserve">
<g>
	<g>
		<polygon points="0,367.304 0,445.217 33.391,445.217 33.391,400.696 77.913,400.696 77.913,367.304   "/>
	</g>
</g>
<g>
	<g>
		<rect x="33.391" y="445.217" width="33.391" height="33.391"/>
	</g>
</g>
<g>
	<g>
		<polygon points="111.304,434.087 111.304,478.609 66.783,478.609 66.783,512 144.696,512 144.696,434.087   "/>
	</g>
</g>
<g>
	<g>
		<rect x="144.696" y="400.696" width="33.391" height="33.391"/>
	</g>
</g>
<g>
	<g>
		<path d="M478.609,66.783V33.391h-33.391V0H244.87v33.391h-33.391v33.391h-33.391v33.391h-33.391v55.652h-33.391v178.087h33.391    v33.391h33.391v33.391h178.087v-33.391h55.652v-33.391h33.391v-33.391h33.391V267.13H512V66.783H478.609z M345.043,100.174    h-66.783v33.391H244.87v55.652h-33.391v-55.652h33.391v-33.391h33.391V66.783h66.783V100.174z M411.826,100.174h-33.391V66.783    h33.391V100.174z"/>
	</g>
</g>
<g>
	<g>
		<rect x="77.913" y="333.913" width="33.391" height="33.391"/>
	</g>
</g>
<g>
</g>
<g>
</g>
<g>
</g>
<g>
</g>
<g>
</g>
<g>
</g>
<g>
</g>
<g>
</g>
<g>
</g>
<g>
</g>
<g>
</g>
<g>
</g>
<g>
</g>
<g>
</g>
<g>
</g>
</svg>
