<?xml version="1.0" encoding="iso-8859-1"?>
<!-- Generator: Adobe Illustrator 19.0.0, SVG Export Plug-In . SVG Version: 6.00 Build 0)  -->
<svg xmlns="http://www.w3.org/2000/svg" xmlns:xlink="http://www.w3.org/1999/xlink" version="1.1" id="Layer_1" x="0px" y="0px" viewBox="0 0 512 512" style="enable-background:new 0 0 512 512;" xml:space="preserve">
<g>
	<g>
		<g>
			<rect x="289.391" y="200.348" width="33.391" height="33.391"/>
			<rect x="189.217" y="200.348" width="33.391" height="33.391"/>
			<path d="M389.565,33.391V0h-267.13v33.391H89.044v445.217h33.391V333.913h267.13v144.696h33.391V33.391H389.565z      M389.565,133.565h-66.783v66.783h66.783v33.391h-66.783v66.783h-33.391v-66.783h-66.783v66.783h-33.391v-66.783h-66.783v-33.391     h66.783v-66.783h-66.783v-33.391h66.783V33.391h33.391v66.783h66.783V33.391h33.391v66.783h66.783V133.565z"/>
		</g>
	</g>
</g>
<g>
	<g>
		<rect x="189.217" y="100.174" width="33.391" height="33.391"/>
	</g>
</g>
<g>
	<g>
		<rect x="289.391" y="100.174" width="33.391" height="33.391"/>
	</g>
</g>
<g>
	<g>
		<rect x="222.609" y="133.565" width="66.783" height="66.783"/>
	</g>
</g>
<g>
	<g>
		<rect x="122.435" y="478.609" width="267.13" height="33.391"/>
	</g>
</g>
<g>
</g>
<g>
</g>
<g>
</g>
<g>
</g>
<g>
</g>
<g>
</g>
<g>
</g>
<g>
</g>
<g>
</g>
<g>
</g>
<g>
</g>
<g>
</g>
<g>
</g>
<g>
</g>
<g>
</g>
</svg>
