<svg xmlns="http://www.w3.org/2000/svg" viewBox="0 0 512 512" shape-rendering="crispEdges"><path d="M289.391 200.348h33.391v33.391h-33.391zM189.217 200.348h33.391v33.391h-33.391z"/><path d="M389.565 33.391V0h-267.13v33.391H89.044v445.217h33.391V333.913h267.13v144.696h33.391V33.391h-33.391zm0 100.174h-66.783v66.783h66.783v33.391h-66.783v66.783h-33.391v-66.783h-66.783v66.783h-33.391v-66.783h-66.783v-33.391h66.783v-66.783h-66.783v-33.391h66.783V33.391h33.391v66.783h66.783V33.391h33.391v66.783h66.783v33.391z"/><path d="M189.217 100.174h33.391v33.391h-33.391zM289.391 100.174h33.391v33.391h-33.391zM222.609 133.565h66.783v66.783h-66.783zM122.435 478.609h267.13V512h-267.13z"/></svg>