<svg xmlns="http://www.w3.org/2000/svg" viewBox="0 0 512 512" shape-rendering="crispEdges"><path d="M478.609 272.696v-33.392h-66.783v-33.391H0v200.348h33.391v33.391h33.392v33.391h33.391v33.392h211.478v-33.392h33.391v-33.391h33.392v-33.391h100.174V372.87h-66.783V272.696zM66.783 105.739h33.391v33.391H66.783zM100.174 139.13h33.391v33.391h-33.391zM100.174 72.348h33.391v33.391h-33.391zM166.957 38.957h33.391v33.391h-33.391zM200.348 72.348h33.391v33.391h-33.391zM166.957 105.739h33.391v33.391h-33.391zM200.348 139.13h33.391v33.391h-33.391zM267.13 105.739h33.391v33.391H267.13zM300.522 72.348h33.391v33.391h-33.391zM300.522 139.13h33.391v33.391h-33.391z"/><path d="M478.609 272.696H512V372.87h-33.391zM200.348 5.565h33.391v33.391h-33.391z"/></svg>