<?xml version="1.0" encoding="iso-8859-1"?>
<!-- Generator: Adobe Illustrator 19.0.0, SVG Export Plug-In . SVG Version: 6.00 Build 0)  -->
<svg xmlns="http://www.w3.org/2000/svg" xmlns:xlink="http://www.w3.org/1999/xlink" version="1.1" id="Layer_1" x="0px" y="0px" viewBox="0 0 512 512" style="enable-background:new 0 0 512 512;" xml:space="preserve">
<g>
	<g>
		<path d="M478.609,166.957v-66.783h-33.391V66.783h-33.391V33.391h-66.783V0H166.957v33.391h-66.783v33.391H66.783v33.391H33.391    v66.783H0v178.087h33.391v66.783h33.391v33.391h33.391v33.391h66.783V512h178.087v-33.391h66.783v-33.391h33.391v-33.391h33.391    v-66.783H512V166.957H478.609z M100.174,278.261H66.783V244.87h33.391V278.261z M256,77.913h33.391v33.391H256V77.913z     M133.565,133.565h33.391v33.391h-33.391V133.565z M189.217,411.826h-33.391v-33.391h33.391V411.826z M333.913,411.826h-33.391    v-33.391h33.391V411.826z M345.043,311.652h-33.391v33.391H200.348v-33.391h-33.391V200.348h33.391v-33.391h111.304v33.391h33.391    V311.652z M411.826,345.043h-33.391v-33.391h33.391V345.043z M411.826,200.348h-33.391v-33.391h33.391V200.348z"/>
	</g>
</g>
<g>
</g>
<g>
</g>
<g>
</g>
<g>
</g>
<g>
</g>
<g>
</g>
<g>
</g>
<g>
</g>
<g>
</g>
<g>
</g>
<g>
</g>
<g>
</g>
<g>
</g>
<g>
</g>
<g>
</g>
</svg>
