<?xml version="1.0" encoding="iso-8859-1"?>
<!-- Generator: Adobe Illustrator 19.0.0, SVG Export Plug-In . SVG Version: 6.00 Build 0)  -->
<svg xmlns="http://www.w3.org/2000/svg" xmlns:xlink="http://www.w3.org/1999/xlink" version="1.1" id="Layer_1" x="0px" y="0px" viewBox="0 0 512 512" style="enable-background:new 0 0 512 512;" xml:space="preserve">
<g>
	<g>
		<path d="M512,233.739v-66.783h-33.391v-33.391h-66.783v33.391h-33.391v66.783h-33.391v-66.783h-33.391v66.783h-33.391v-66.783    H244.87v66.783h-33.391V100.174V66.783H111.304v33.391H66.783v33.391H33.391v33.391H0v178.087h33.391v33.391h33.391v33.391h44.522    v33.391h100.174v-77.913v-89.043v-11.13h33.391v77.913h33.391V267.13h33.391v77.913h33.391V267.13h33.391v11.13v66.783h33.391    v33.391h66.783v-33.391H512v-66.783h-33.391v-44.522H512z M133.565,267.13v11.13h-22.261H89.044v-44.522h22.261h22.261V267.13z"/>
	</g>
</g>
<g>
</g>
<g>
</g>
<g>
</g>
<g>
</g>
<g>
</g>
<g>
</g>
<g>
</g>
<g>
</g>
<g>
</g>
<g>
</g>
<g>
</g>
<g>
</g>
<g>
</g>
<g>
</g>
<g>
</g>
</svg>
