<?xml version="1.0" encoding="iso-8859-1"?>
<!-- Generator: Adobe Illustrator 19.0.0, SVG Export Plug-In . SVG Version: 6.00 Build 0)  -->
<svg xmlns="http://www.w3.org/2000/svg" xmlns:xlink="http://www.w3.org/1999/xlink" version="1.1" id="Layer_1" x="0px" y="0px" viewBox="0 0 512 512" style="enable-background:new 0 0 512 512;" xml:space="preserve">
<g>
	<g>
		<rect x="166.957" width="178.087" height="33.391"/>
	</g>
</g>
<g>
	<g>
		<rect x="100.174" y="33.391" width="66.783" height="33.391"/>
	</g>
</g>
<g>
	<g>
		<rect x="33.391" y="100.174" width="33.391" height="66.783"/>
	</g>
</g>
<g>
	<g>
		<rect y="166.957" width="33.391" height="178.087"/>
	</g>
</g>
<g>
	<g>
		<rect x="33.391" y="345.043" width="33.391" height="66.783"/>
	</g>
</g>
<g>
	<g>
		<rect x="66.783" y="411.826" width="33.391" height="33.391"/>
	</g>
</g>
<g>
	<g>
		<rect x="100.174" y="445.217" width="66.783" height="33.391"/>
	</g>
</g>
<g>
	<g>
		<rect x="166.957" y="478.609" width="178.087" height="33.391"/>
	</g>
</g>
<g>
	<g>
		<rect x="345.043" y="445.217" width="66.783" height="33.391"/>
	</g>
</g>
<g>
	<g>
		<rect x="411.826" y="411.826" width="33.391" height="33.391"/>
	</g>
</g>
<g>
	<g>
		<rect x="445.217" y="345.043" width="33.391" height="66.783"/>
	</g>
</g>
<g>
	<g>
		<rect x="478.609" y="166.957" width="33.391" height="178.087"/>
	</g>
</g>
<g>
	<g>
		<rect x="445.217" y="100.174" width="33.391" height="66.783"/>
	</g>
</g>
<g>
	<g>
		<rect x="411.826" y="66.783" width="33.391" height="33.391"/>
	</g>
</g>
<g>
	<g>
		<rect x="345.043" y="33.391" width="66.783" height="33.391"/>
	</g>
</g>
<g>
	<g>
		<path d="M322.783,166.957v-33.391h-33.391v-33.391H166.957v33.391h-33.391v33.391h-33.391v122.435h33.391v33.391h33.391v33.391    h122.435v-33.391h33.391v-33.391h33.391V166.957H322.783z M200.348,200.348h-33.391v-33.391h33.391V200.348z"/>
	</g>
</g>
<g>
	<g>
		<rect x="66.783" y="66.783" width="33.391" height="33.391"/>
	</g>
</g>
<g>
</g>
<g>
</g>
<g>
</g>
<g>
</g>
<g>
</g>
<g>
</g>
<g>
</g>
<g>
</g>
<g>
</g>
<g>
</g>
<g>
</g>
<g>
</g>
<g>
</g>
<g>
</g>
<g>
</g>
</svg>
