<svg xmlns="http://www.w3.org/2000/svg" viewBox="0 0 512 512" shape-rendering="crispEdges"><path d="M55.652 100.174h33.391v311.652H55.652zM89.044 411.826h33.391v33.391H89.044zM389.565 411.826h33.391v33.391h-33.391zM422.957 100.174h33.391v311.652h-33.391zM389.565 66.783h33.391v33.391h-33.391zM389.565 66.783V33.391h-66.782V0H189.217v33.391h-66.782v33.391h33.391v378.435h-33.391v33.391h66.782V512h133.565v-33.391h66.782v-33.391h-33.391V66.783h33.392zm-100.174 55.652H256v33.391h33.391v33.391H256v33.391h33.391V256H256v33.391h33.391v33.391H256v33.391h33.391v33.391H256v33.391h-33.391v-33.391H256v-33.391h-33.391v-33.391H256v-33.391h-33.391V256H256v-33.391h-33.391v-33.391H256v-33.391h-33.391v-33.391H256V89.044h33.391v33.391zM89.044 66.783h33.391v33.391H89.044z"/></svg>