<?xml version="1.0" encoding="iso-8859-1"?>
<!-- Generator: Adobe Illustrator 19.0.0, SVG Export Plug-In . SVG Version: 6.00 Build 0)  -->
<svg xmlns="http://www.w3.org/2000/svg" xmlns:xlink="http://www.w3.org/1999/xlink" version="1.1" id="Layer_1" x="0px" y="0px" viewBox="0 0 512 512" style="enable-background:new 0 0 512 512;" xml:space="preserve">
<g>
	<g>
		<rect x="200.348" y="411.826" width="33.391" height="66.783"/>
	</g>
</g>
<g>
	<g>
		<rect x="278.261" y="411.826" width="33.391" height="66.783"/>
	</g>
</g>
<g>
	<g>
		<rect x="311.652" y="322.783" width="33.391" height="89.044"/>
	</g>
</g>
<g>
	<g>
		<rect x="166.957" y="322.783" width="33.391" height="89.044"/>
	</g>
</g>
<g>
	<g>
		<path d="M378.435,66.783V33.391h-33.391V0H200.348h-33.391v33.391h33.391v33.391h-33.391V33.391h-33.391v33.391h-33.391v33.391    v66.783v33.391h33.391v33.391v89.043h33.391v-89.043h178.087v89.043h33.391v-89.043v-33.391h33.391v-33.391v-66.783V66.783    H378.435z M166.957,166.957h-33.391v-66.783h33.391V166.957z"/>
	</g>
</g>
<g>
	<g>
		<rect x="233.739" y="478.609" width="44.522" height="33.391"/>
	</g>
</g>
<g>
</g>
<g>
</g>
<g>
</g>
<g>
</g>
<g>
</g>
<g>
</g>
<g>
</g>
<g>
</g>
<g>
</g>
<g>
</g>
<g>
</g>
<g>
</g>
<g>
</g>
<g>
</g>
<g>
</g>
</svg>
