<svg xmlns="http://www.w3.org/2000/svg" viewBox="0 0 512 512" shape-rendering="crispEdges"><path d="M166.957 0h178.087v33.391H166.957zM100.174 33.391h66.783v33.391h-66.783zM33.391 100.174h33.391v66.783H33.391zM33.391 311.652V166.957H0v244.869h33.391v-66.783h33.392v-33.391zM33.391 411.826h33.391v33.391H33.391zM66.783 445.217h100.174v33.391H66.783zM166.957 411.826h66.783v33.391h-66.783z"/><path d="M233.739 445.217h33.391v33.391h-33.391zM267.13 478.609h178.087V512H267.13zM445.217 445.217h33.391v33.391h-33.391zM478.609 166.957v178.086h-33.392v33.392h33.392v66.782H512v-278.26zM445.217 100.174h33.391v66.783h-33.391zM411.826 66.783h33.391v33.391h-33.391zM345.043 33.391h66.783v33.391h-66.783zM66.783 345.043h100.174v33.391H66.783zM166.957 311.652h66.783v33.391h-66.783zM233.739 345.043h33.391v33.391h-33.391zM267.13 378.435h178.087v33.391H267.13z"/><path d="M411.826 166.957v-66.783h-66.783V66.783H166.957v33.391h-66.783v66.783H66.783v144.696h100.174v-33.391h66.783v33.391h33.391v33.391h178.087V166.957h-33.392zm-22.261 122.434h-66.783v-66.783h66.783v66.783z"/><path d="M66.783 66.783h33.391v33.391H66.783z"/></svg>