<?xml version="1.0" encoding="iso-8859-1"?>
<!-- Generator: Adobe Illustrator 19.0.0, SVG Export Plug-In . SVG Version: 6.00 Build 0)  -->
<svg xmlns="http://www.w3.org/2000/svg" xmlns:xlink="http://www.w3.org/1999/xlink" version="1.1" id="Layer_1" x="0px" y="0px" viewBox="0 0 512 512" style="enable-background:new 0 0 512 512;" xml:space="preserve">
<g>
	<g>
		<rect x="200.348" y="33.391" width="111.304" height="33.391"/>
	</g>
</g>
<g>
	<g>
		<rect x="311.652" y="66.783" width="33.391" height="33.391"/>
	</g>
</g>
<g>
	<g>
		<rect x="133.565" y="100.174" width="33.391" height="33.391"/>
	</g>
</g>
<g>
	<g>
		<rect x="100.174" y="133.565" width="33.391" height="44.522"/>
	</g>
</g>
<g>
	<g>
		<rect x="66.783" y="178.087" width="33.391" height="66.783"/>
	</g>
</g>
<g>
	<g>
		<rect x="33.391" y="244.87" width="33.391" height="66.783"/>
	</g>
</g>
<g>
	<g>
		<rect y="311.652" width="33.391" height="133.565"/>
	</g>
</g>
<g>
	<g>
		<rect x="478.609" y="311.652" width="33.391" height="133.565"/>
	</g>
</g>
<g>
	<g>
		<rect x="345.043" y="100.174" width="33.391" height="33.391"/>
	</g>
</g>
<g>
	<g>
		<rect x="378.435" y="133.565" width="33.391" height="44.522"/>
	</g>
</g>
<g>
	<g>
		<rect x="411.826" y="178.087" width="33.391" height="66.783"/>
	</g>
</g>
<g>
	<g>
		<rect x="445.217" y="244.87" width="33.391" height="66.783"/>
	</g>
</g>
<g>
	<g>
		<path d="M389.565,445.217v-33.391v-33.391v-66.783v-33.391h-33.391h-33.391h-33.391h-66.783h-33.391h-33.391h-33.391v33.391    v33.391v33.391v66.783H33.391v33.391h89.044h33.391h33.391h33.391H256h33.391h33.391h33.391h33.391h89.044v-33.391H389.565z     M155.826,378.435v-33.391h33.391v-33.391h33.391v33.391h-33.391v33.391H155.826z M256,378.435v33.391h-33.391v33.391h-33.391    v-33.391h33.391v-33.391H256v-33.391h33.391v-33.391h33.391v33.391h-33.391v33.391H256z M356.174,411.826h-33.391v33.391h-33.391    v-33.391h33.391v-33.391h33.391V411.826z"/>
	</g>
</g>
<g>
	<g>
		<rect x="166.957" y="66.783" width="33.391" height="33.391"/>
	</g>
</g>
<g>
</g>
<g>
</g>
<g>
</g>
<g>
</g>
<g>
</g>
<g>
</g>
<g>
</g>
<g>
</g>
<g>
</g>
<g>
</g>
<g>
</g>
<g>
</g>
<g>
</g>
<g>
</g>
<g>
</g>
</svg>
