<?xml version="1.0" encoding="iso-8859-1"?>
<!-- Generator: Adobe Illustrator 19.0.0, SVG Export Plug-In . SVG Version: 6.00 Build 0)  -->
<svg xmlns="http://www.w3.org/2000/svg" xmlns:xlink="http://www.w3.org/1999/xlink" version="1.1" id="Layer_1" x="0px" y="0px" viewBox="0 0 512 512" style="enable-background:new 0 0 512 512;" xml:space="preserve">
<g>
	<g>
		<path d="M406.261,66.783V33.391H372.87V0h-33.391h-33.391h-33.391h-33.391h-33.391h-33.391H139.13v33.391h-33.391v33.391H72.348    v77.913v33.391v300.522h33.391V512h100.174h200.348v-33.391h33.391V178.087v-33.391V66.783H406.261z M306.087,33.391h33.391    v33.391h-33.391V33.391z M239.304,33.391h33.391v33.391h-33.391V33.391z M172.522,33.391h33.391v33.391h-33.391V33.391z     M172.522,445.217H139.13V345.043h33.391V445.217z M172.522,311.652H139.13v-33.391h33.391V311.652z M406.261,178.087H194.783    h-22.261H139.13H116.87h-11.13v-33.391h33.391h33.391h33.391h33.391h33.391h33.391h33.391h33.391h33.391V178.087z"/>
	</g>
</g>
<g>
</g>
<g>
</g>
<g>
</g>
<g>
</g>
<g>
</g>
<g>
</g>
<g>
</g>
<g>
</g>
<g>
</g>
<g>
</g>
<g>
</g>
<g>
</g>
<g>
</g>
<g>
</g>
<g>
</g>
</svg>
