<?xml version="1.0" encoding="iso-8859-1"?>
<!-- Generator: Adobe Illustrator 19.0.0, SVG Export Plug-In . SVG Version: 6.00 Build 0)  -->
<svg xmlns="http://www.w3.org/2000/svg" xmlns:xlink="http://www.w3.org/1999/xlink" version="1.1" id="Layer_1" x="0px" y="0px" viewBox="0 0 512 512" style="enable-background:new 0 0 512 512;" xml:space="preserve">
<g>
	<g>
		<rect x="100.174" y="33.391" width="66.783" height="33.391"/>
	</g>
</g>
<g>
	<g>
		<rect x="166.957" width="178.087" height="33.391"/>
	</g>
</g>
<g>
	<g>
		<rect x="166.957" y="66.783" width="33.391" height="33.391"/>
	</g>
</g>
<g>
	<g>
		<rect x="233.739" y="66.783" width="44.522" height="33.391"/>
	</g>
</g>
<g>
	<g>
		<rect x="311.652" y="66.783" width="33.391" height="33.391"/>
	</g>
</g>
<g>
	<g>
		<rect x="345.043" y="33.391" width="66.783" height="33.391"/>
	</g>
</g>
<g>
	<g>
		<rect x="411.826" y="66.783" width="33.391" height="33.391"/>
	</g>
</g>
<g>
	<g>
		<rect x="445.217" y="100.174" width="33.391" height="66.783"/>
	</g>
</g>
<g>
	<g>
		<polygon points="478.609,166.957 478.609,233.739 33.391,233.739 33.391,166.957 0,166.957 0,233.739 0,345.043 33.391,345.043     33.391,411.826 66.783,411.826 66.783,445.217 100.174,445.217 100.174,478.609 133.565,478.609 133.565,512 378.435,512     378.435,478.609 411.826,478.609 411.826,445.217 445.217,445.217 445.217,411.826 478.609,411.826 478.609,345.043 512,345.043     512,233.739 512,166.957   "/>
	</g>
</g>
<g>
	<g>
		<rect x="33.391" y="100.174" width="33.391" height="66.783"/>
	</g>
</g>
<g>
	<g>
		<rect x="66.783" y="66.783" width="33.391" height="33.391"/>
	</g>
</g>
<g>
</g>
<g>
</g>
<g>
</g>
<g>
</g>
<g>
</g>
<g>
</g>
<g>
</g>
<g>
</g>
<g>
</g>
<g>
</g>
<g>
</g>
<g>
</g>
<g>
</g>
<g>
</g>
<g>
</g>
</svg>
