<?xml version="1.0" encoding="iso-8859-1"?>
<!-- Generator: Adobe Illustrator 19.0.0, SVG Export Plug-In . SVG Version: 6.00 Build 0)  -->
<svg xmlns="http://www.w3.org/2000/svg" xmlns:xlink="http://www.w3.org/1999/xlink" version="1.1" id="Layer_1" x="0px" y="0px" viewBox="0 0 512 512" style="enable-background:new 0 0 512 512;" xml:space="preserve">
<g>
	<g>
		<rect x="122.435" y="100.174" width="33.391" height="33.391"/>
	</g>
</g>
<g>
	<g>
		<rect x="122.435" y="33.391" width="33.391" height="33.391"/>
	</g>
</g>
<g>
	<g>
		<rect x="155.826" y="66.783" width="33.391" height="33.391"/>
	</g>
</g>
<g>
	<g>
		<rect x="155.826" width="33.391" height="33.391"/>
	</g>
</g>
<g>
	<g>
		<rect x="222.609" y="33.391" width="33.391" height="33.391"/>
	</g>
</g>
<g>
	<g>
		<rect x="256" y="66.783" width="33.391" height="33.391"/>
	</g>
</g>
<g>
	<g>
		<rect x="222.609" y="100.174" width="33.391" height="33.391"/>
	</g>
</g>
<g>
	<g>
		<rect x="322.783" y="33.391" width="33.391" height="33.391"/>
	</g>
</g>
<g>
	<g>
		<rect x="356.174" y="66.783" width="33.391" height="33.391"/>
	</g>
</g>
<g>
	<g>
		<rect x="356.174" width="33.391" height="33.391"/>
	</g>
</g>
<g>
	<g>
		<rect x="322.783" y="100.174" width="33.391" height="33.391"/>
	</g>
</g>
<g>
	<g>
		<rect x="189.217" y="178.087" width="133.565" height="33.391"/>
	</g>
</g>
<g>
	<g>
		<rect x="155.826" y="211.478" width="33.391" height="33.391"/>
	</g>
</g>
<g>
	<g>
		<rect x="322.783" y="211.478" width="33.391" height="33.391"/>
	</g>
</g>
<g>
	<g>
		<polygon points="389.565,278.261 389.565,244.87 356.174,244.87 356.174,311.652 445.217,311.652 445.217,278.261   "/>
	</g>
</g>
<g>
	<g>
		<rect x="322.783" y="311.652" width="33.391" height="33.391"/>
	</g>
</g>
<g>
	<g>
		<polygon points="122.435,244.87 122.435,278.261 66.783,278.261 66.783,311.652 155.826,311.652 155.826,244.87   "/>
	</g>
</g>
<g>
	<g>
		<rect x="155.826" y="311.652" width="33.391" height="33.391"/>
	</g>
</g>
<g>
	<g>
		<polygon points="478.609,378.435 478.609,311.652 445.217,311.652 445.217,378.435 66.783,378.435 66.783,311.652 33.391,311.652     33.391,378.435 0,378.435 0,445.217 33.391,445.217 33.391,478.609 66.783,478.609 66.783,512 445.217,512 445.217,478.609     478.609,478.609 478.609,445.217 512,445.217 512,378.435   "/>
	</g>
</g>
<g>
	<g>
		<rect x="256" width="33.391" height="33.391"/>
	</g>
</g>
<g>
</g>
<g>
</g>
<g>
</g>
<g>
</g>
<g>
</g>
<g>
</g>
<g>
</g>
<g>
</g>
<g>
</g>
<g>
</g>
<g>
</g>
<g>
</g>
<g>
</g>
<g>
</g>
<g>
</g>
</svg>
