<?xml version="1.0" encoding="iso-8859-1"?>
<!-- Generator: Adobe Illustrator 19.0.0, SVG Export Plug-In . SVG Version: 6.00 Build 0)  -->
<svg xmlns="http://www.w3.org/2000/svg" xmlns:xlink="http://www.w3.org/1999/xlink" version="1.1" id="Layer_1" x="0px" y="0px" viewBox="0 0 512 512" style="enable-background:new 0 0 512 512;" xml:space="preserve">
<g>
	<g>
		<polygon points="0,189.217 0,322.783 33.391,322.783 33.391,389.565 66.783,389.565 66.783,422.957 100.174,422.957     100.174,456.348 133.565,456.348 133.565,489.739 378.435,489.739 378.435,456.348 411.826,456.348 411.826,422.957     445.217,422.957 445.217,389.565 478.609,389.565 478.609,322.783 512,322.783 512,189.217   "/>
	</g>
</g>
<g>
	<g>
		<rect x="122.435" y="122.435" width="33.391" height="33.391"/>
	</g>
</g>
<g>
	<g>
		<rect x="155.826" y="89.044" width="33.391" height="33.391"/>
	</g>
</g>
<g>
	<g>
		<rect x="122.435" y="55.652" width="33.391" height="33.391"/>
	</g>
</g>
<g>
	<g>
		<rect x="155.826" y="22.261" width="33.391" height="33.391"/>
	</g>
</g>
<g>
	<g>
		<rect x="222.609" y="55.652" width="33.391" height="33.391"/>
	</g>
</g>
<g>
	<g>
		<rect x="256" y="89.044" width="33.391" height="33.391"/>
	</g>
</g>
<g>
	<g>
		<rect x="222.609" y="122.435" width="33.391" height="33.391"/>
	</g>
</g>
<g>
	<g>
		<rect x="322.783" y="122.435" width="33.391" height="33.391"/>
	</g>
</g>
<g>
	<g>
		<rect x="356.174" y="89.044" width="33.391" height="33.391"/>
	</g>
</g>
<g>
	<g>
		<rect x="322.783" y="55.652" width="33.391" height="33.391"/>
	</g>
</g>
<g>
	<g>
		<rect x="356.174" y="22.261" width="33.391" height="33.391"/>
	</g>
</g>
<g>
	<g>
		<rect x="256" y="22.261" width="33.391" height="33.391"/>
	</g>
</g>
<g>
</g>
<g>
</g>
<g>
</g>
<g>
</g>
<g>
</g>
<g>
</g>
<g>
</g>
<g>
</g>
<g>
</g>
<g>
</g>
<g>
</g>
<g>
</g>
<g>
</g>
<g>
</g>
<g>
</g>
</svg>
