<svg xmlns="http://www.w3.org/2000/svg" viewBox="0 0 512 512" shape-rendering="crispEdges"><path d="M411.826 189.217V66.783h-33.391v122.434h-55.652V66.783h-33.392v122.434h-66.782V66.783h-33.392v122.434h-55.652V66.783h-33.391v122.434H33.391v33.392h445.218v-33.392zM100.174 0h33.391v33.391h-33.391zm189.217 0h33.391v33.391h-33.391zm89.044 0h33.391v33.391h-33.391zm100.174 222.609v66.782h-33.392v33.392H345.043v-33.392h-33.391v33.392H200.348v-33.392h-33.391v33.392H66.783v-33.392H33.391v-66.782H0v178.087h512V222.609zM0 434.087v44.522h33.391V512h445.218v-33.391H512v-44.522zM189.217 0h33.391v33.391h-33.391z"/></svg>