<?xml version="1.0" encoding="iso-8859-1"?>
<!-- Generator: Adobe Illustrator 19.0.0, SVG Export Plug-In . SVG Version: 6.00 Build 0)  -->
<svg xmlns="http://www.w3.org/2000/svg" xmlns:xlink="http://www.w3.org/1999/xlink" version="1.1" id="Layer_1" x="0px" y="0px" viewBox="0 0 512 512" style="enable-background:new 0 0 512 512;" xml:space="preserve">
<g>
	<g>
		<polygon points="411.826,189.217 411.826,66.783 378.435,66.783 378.435,189.217 322.783,189.217 322.783,66.783 289.391,66.783     289.391,189.217 222.609,189.217 222.609,66.783 189.217,66.783 189.217,189.217 133.565,189.217 133.565,66.783 100.174,66.783     100.174,189.217 33.391,189.217 33.391,222.609 478.609,222.609 478.609,189.217   "/>
	</g>
</g>
<g>
	<g>
		<rect x="100.174" width="33.391" height="33.391"/>
	</g>
</g>
<g>
	<g>
		<rect x="289.391" width="33.391" height="33.391"/>
	</g>
</g>
<g>
	<g>
		<rect x="378.435" width="33.391" height="33.391"/>
	</g>
</g>
<g>
	<g>
		<polygon points="478.609,222.609 478.609,289.391 445.217,289.391 445.217,322.783 345.043,322.783 345.043,289.391     311.652,289.391 311.652,322.783 200.348,322.783 200.348,289.391 166.957,289.391 166.957,322.783 66.783,322.783     66.783,289.391 33.391,289.391 33.391,222.609 0,222.609 0,400.696 512,400.696 512,222.609   "/>
	</g>
</g>
<g>
	<g>
		<polygon points="0,434.087 0,478.609 33.391,478.609 33.391,512 478.609,512 478.609,478.609 512,478.609 512,434.087   "/>
	</g>
</g>
<g>
	<g>
		<rect x="189.217" width="33.391" height="33.391"/>
	</g>
</g>
<g>
</g>
<g>
</g>
<g>
</g>
<g>
</g>
<g>
</g>
<g>
</g>
<g>
</g>
<g>
</g>
<g>
</g>
<g>
</g>
<g>
</g>
<g>
</g>
<g>
</g>
<g>
</g>
<g>
</g>
</svg>
