<?xml version="1.0" encoding="iso-8859-1"?>
<!-- Generator: Adobe Illustrator 19.0.0, SVG Export Plug-In . SVG Version: 6.00 Build 0)  -->
<svg xmlns="http://www.w3.org/2000/svg" xmlns:xlink="http://www.w3.org/1999/xlink" version="1.1" id="Layer_1" x="0px" y="0px" viewBox="0 0 512 512" style="enable-background:new 0 0 512 512;" xml:space="preserve">
<g>
	<g>
		<rect x="256" y="122.435" width="44.522" height="44.522"/>
	</g>
</g>
<g>
	<g>
		<path d="M478.609,166.957v-66.783h-33.391v-11.13V66.783h-33.391V33.391h-33.391V0H267.13v33.391h-55.652v33.391h-44.522v22.261    v11.13h-44.522v22.261v11.13H77.913v33.391H33.391v33.391H0v33.391v33.391v33.391v33.391v44.522v33.391v33.391V512h33.391h44.522    h33.391h233.739h66.783h33.391h33.391H512v-66.783v-33.391v-66.783v-11.13v-33.391V267.13v-33.391v-33.391v-33.391H478.609z     M222.609,133.565v-11.13H256v-22.261v-11.13h44.522v33.391h33.391v44.522h-33.391v33.391H256v-33.391h-33.391V133.565z     M189.217,378.435h-33.391v33.391h-44.522v-33.391H77.913v-44.522h33.391v-33.391h44.522v33.391h33.391V378.435z M445.217,411.826    h-33.391v33.391h-66.783v-33.391h-33.391v-33.391v-33.391h33.391v-33.391h66.783v33.391h33.391V411.826z M478.609,267.13h-66.783    h-66.783h-33.391h-33.391h-55.652h-33.391h-33.391h-44.522H77.913H33.391v-33.391H256h44.522h178.087V267.13z"/>
	</g>
</g>
<g>
	<g>
		<rect x="111.304" y="333.913" width="44.522" height="44.522"/>
	</g>
</g>
<g>
	<g>
		<rect x="345.043" y="345.043" width="66.783" height="66.783"/>
	</g>
</g>
<g>
</g>
<g>
</g>
<g>
</g>
<g>
</g>
<g>
</g>
<g>
</g>
<g>
</g>
<g>
</g>
<g>
</g>
<g>
</g>
<g>
</g>
<g>
</g>
<g>
</g>
<g>
</g>
<g>
</g>
</svg>
