<?xml version="1.0" encoding="iso-8859-1"?>
<!-- Generator: Adobe Illustrator 19.0.0, SVG Export Plug-In . SVG Version: 6.00 Build 0)  -->
<svg xmlns="http://www.w3.org/2000/svg" xmlns:xlink="http://www.w3.org/1999/xlink" version="1.1" id="Layer_1" x="0px" y="0px" viewBox="0 0 512 512" style="enable-background:new 0 0 512 512;" xml:space="preserve">
<g>
	<g>
		<rect x="100.174" y="445.217" width="311.652" height="66.783"/>
	</g>
</g>
<g>
	<g>
		<path d="M478.609,189.217v-33.391H356.174v33.391h-33.391v-33.391h33.391v-33.391h33.391V66.783h-33.391V33.391h-33.391V0H189.217    v33.391h-33.391v33.391h-33.391v55.652h33.391v33.391h33.391v33.391h-33.391v-33.391H33.391v33.391H0v89.043h33.391v33.391h33.391    v33.391h33.391v66.783h311.652v-66.783h33.391v-33.391h33.391v-33.391H512v-89.043H478.609z M211.478,378.435h-33.391v-66.783    h33.391V378.435z M333.913,378.435h-33.391v-66.783h33.391V378.435z"/>
	</g>
</g>
<g>
</g>
<g>
</g>
<g>
</g>
<g>
</g>
<g>
</g>
<g>
</g>
<g>
</g>
<g>
</g>
<g>
</g>
<g>
</g>
<g>
</g>
<g>
</g>
<g>
</g>
<g>
</g>
<g>
</g>
</svg>
