<svg xmlns="http://www.w3.org/2000/svg" viewBox="0 0 512 512" shape-rendering="crispEdges"><path d="M0 367.304v77.913h33.391v-44.521h44.522v-33.392zM33.391 445.217h33.391v33.391H33.391zM111.304 434.087v44.522H66.783V512h77.913v-77.913zM144.696 400.696h33.391v33.391h-33.391zM478.609 66.783V33.391h-33.391V0H244.87v33.391h-33.391v33.391h-33.391v33.391h-33.391v55.652h-33.391v178.087h33.391v33.391h33.391v33.391h178.087v-33.391h55.652v-33.391h33.391v-33.391h33.391V267.13H512V66.783h-33.391zm-133.566 33.391H278.26v33.391h-33.39v55.652h-33.391v-55.652h33.391v-33.391h33.391V66.783h66.783v33.391zm66.783 0h-33.391V66.783h33.391v33.391zM77.913 333.913h33.391v33.391H77.913z"/></svg>