<?xml version="1.0" encoding="iso-8859-1"?>
<!-- Generator: Adobe Illustrator 19.0.0, SVG Export Plug-In . SVG Version: 6.00 Build 0)  -->
<svg xmlns="http://www.w3.org/2000/svg" xmlns:xlink="http://www.w3.org/1999/xlink" version="1.1" id="Layer_1" x="0px" y="0px" viewBox="0 0 512 512" style="enable-background:new 0 0 512 512;" xml:space="preserve">
<g>
	<g>
		<polygon points="406.261,33.391 406.261,0 306.087,0 306.087,33.391 272.696,33.391 272.696,166.957 306.087,166.957     306.087,200.348 339.478,200.348 339.478,512 372.87,512 372.87,200.348 406.261,200.348 406.261,166.957 439.652,166.957     439.652,33.391   "/>
	</g>
</g>
<g>
	<g>
		<rect x="72.348" width="33.391" height="166.957"/>
	</g>
</g>
<g>
	<g>
		<rect x="205.913" width="33.391" height="166.957"/>
	</g>
</g>
<g>
	<g>
		<polygon points="172.522,166.957 172.522,0 139.13,0 139.13,166.957 105.739,166.957 105.739,200.348 139.13,200.348 139.13,512     172.522,512 172.522,200.348 205.913,200.348 205.913,166.957   "/>
	</g>
</g>
<g>
</g>
<g>
</g>
<g>
</g>
<g>
</g>
<g>
</g>
<g>
</g>
<g>
</g>
<g>
</g>
<g>
</g>
<g>
</g>
<g>
</g>
<g>
</g>
<g>
</g>
<g>
</g>
<g>
</g>
</svg>
