<svg xmlns="http://www.w3.org/2000/svg" viewBox="0 0 512 512" shape-rendering="crispEdges"><path d="M478.609 166.957v-66.783h-33.391V66.783h-33.391V33.391h-66.783V0H166.957v33.391h-66.783v33.391H66.783v33.391H33.391v66.783H0v178.087h33.391v66.783h33.391v33.391h33.391v33.391h66.783V512h178.087v-33.391h66.783v-33.391h33.391v-33.391h33.391v-66.783H512V166.957h-33.391zM100.174 278.261H66.783V244.87h33.391v33.391zM256 77.913h33.391v33.391H256V77.913zm-122.435 55.652h33.391v33.391h-33.391v-33.391zm55.652 278.261h-33.391v-33.391h33.391v33.391zm144.696 0h-33.391v-33.391h33.391v33.391zm11.13-100.174h-33.391v33.391H200.348v-33.391h-33.391V200.348h33.391v-33.391h111.304v33.391h33.391v111.304zm66.783 33.391h-33.391v-33.391h33.391v33.391zm0-144.695h-33.391v-33.391h33.391v33.391z"/></svg>