<svg xmlns="http://www.w3.org/2000/svg" viewBox="0 0 512 512" shape-rendering="crispEdges"><path d="M512 233.739v-66.783h-33.391v-33.391h-66.783v33.391h-33.391v66.783h-33.391v-66.783h-33.391v66.783h-33.391v-66.783H244.87v66.783h-33.391V66.783H111.304v33.391H66.783v33.391H33.391v33.391H0v178.087h33.391v33.391h33.391v33.391h44.522v33.391h100.174V267.13h33.391v77.913h33.391V267.13h33.391v77.913h33.391V267.13h33.391v77.913h33.391v33.391h66.783v-33.391H512V278.26h-33.391v-44.522H512zM133.565 267.13v11.13H89.044v-44.522h44.522v33.392z"/></svg>