<?xml version="1.0" encoding="iso-8859-1"?>
<!-- Generator: Adobe Illustrator 19.0.0, SVG Export Plug-In . SVG Version: 6.00 Build 0)  -->
<svg xmlns="http://www.w3.org/2000/svg" xmlns:xlink="http://www.w3.org/1999/xlink" version="1.1" id="Layer_1" x="0px" y="0px" viewBox="0 0 512 512" style="enable-background:new 0 0 512 512;" xml:space="preserve">
<g>
	<g>
		<rect x="400.696" y="55.652" width="33.391" height="33.391"/>
	</g>
</g>
<g>
	<g>
		<rect x="434.087" y="22.261" width="77.913" height="33.391"/>
	</g>
</g>
<g>
	<g>
		<path d="M434.087,155.826v-33.391h-33.391V89.044h-33.391V55.652h-33.391V22.261H233.739v33.391h-33.391H100.174v33.391H66.783    v100.174v33.391H33.391v100.174v33.391H0v100.174h33.391v33.391h100.174v-33.391h33.391H267.13v-33.391h33.391h100.174v-33.391    h33.391V289.391V256h33.391V155.826H434.087z M333.913,122.435h33.391v33.391h-33.391V122.435z M300.522,389.565H267.13v-33.391    H166.957v66.783h-33.391v-66.783H66.783v-33.391h66.783V222.609h-33.391v-33.391h66.783v133.565h55.652h77.913V389.565z     M400.696,289.391h-44.522h-55.652V189.217H200.348V89.044h33.391v66.783h66.783v33.391h33.391V256h66.783V289.391z"/>
	</g>
</g>
<g>
	<g>
		<rect x="133.565" y="322.783" width="33.391" height="33.391"/>
	</g>
</g>
<g>
</g>
<g>
</g>
<g>
</g>
<g>
</g>
<g>
</g>
<g>
</g>
<g>
</g>
<g>
</g>
<g>
</g>
<g>
</g>
<g>
</g>
<g>
</g>
<g>
</g>
<g>
</g>
<g>
</g>
</svg>
