<svg xmlns="http://www.w3.org/2000/svg" viewBox="0 0 512 512" shape-rendering="crispEdges"><path d="M133.565 33.391h244.87v33.391h-244.87zM66.783 100.174h33.391v33.391H66.783zM166.957 100.174h33.391v33.391h-33.391zM233.739 111.304h33.391v33.391h-33.391zM300.522 100.174h33.391v33.391h-33.391zM378.435 66.783h33.391v33.391h-33.391zM411.826 100.174h33.391v33.391h-33.391z"/><path d="M478.609 267.13V133.565h-33.392v100.174H66.783V133.565H33.391V267.13H0v77.913h33.391v100.174h33.392v-66.782h378.434v66.782h33.392V345.043H512V267.13zM66.783 445.217h378.435v33.391H66.783zM100.174 66.783h33.391v33.391h-33.391z"/></svg>