<?xml version="1.0" encoding="iso-8859-1"?>
<!-- Generator: Adobe Illustrator 19.0.0, SVG Export Plug-In . SVG Version: 6.00 Build 0)  -->
<svg xmlns="http://www.w3.org/2000/svg" xmlns:xlink="http://www.w3.org/1999/xlink" version="1.1" id="Layer_1" x="0px" y="0px" viewBox="0 0 512 512" style="enable-background:new 0 0 512 512;" xml:space="preserve">
<g>
	<g>
		<rect x="55.652" y="100.174" width="33.391" height="311.652"/>
	</g>
</g>
<g>
	<g>
		<rect x="89.044" y="411.826" width="33.391" height="33.391"/>
	</g>
</g>
<g>
	<g>
		<rect x="389.565" y="411.826" width="33.391" height="33.391"/>
	</g>
</g>
<g>
	<g>
		<rect x="422.957" y="100.174" width="33.391" height="311.652"/>
	</g>
</g>
<g>
	<g>
		<rect x="389.565" y="66.783" width="33.391" height="33.391"/>
	</g>
</g>
<g>
	<g>
		<path d="M389.565,66.783V33.391h-33.391h-33.391V0H189.217v33.391h-33.391h-33.391v33.391h33.391v378.435h-33.391v33.391h33.391    h33.391V512h133.565v-33.391h33.391h33.391v-33.391h-33.391V66.783H389.565z M289.391,122.435H256v33.391h33.391v33.391H256    v33.391h33.391V256H256v33.391h33.391v33.391H256v33.391h33.391v33.391H256v33.391h-33.391v-33.391H256v-33.391h-33.391v-33.391    H256v-33.391h-33.391V256H256v-33.391h-33.391v-33.391H256v-33.391h-33.391v-33.391H256V89.044h33.391V122.435z"/>
	</g>
</g>
<g>
	<g>
		<rect x="89.044" y="66.783" width="33.391" height="33.391"/>
	</g>
</g>
<g>
</g>
<g>
</g>
<g>
</g>
<g>
</g>
<g>
</g>
<g>
</g>
<g>
</g>
<g>
</g>
<g>
</g>
<g>
</g>
<g>
</g>
<g>
</g>
<g>
</g>
<g>
</g>
<g>
</g>
</svg>
