<?xml version="1.0" encoding="iso-8859-1"?>
<!-- Generator: Adobe Illustrator 19.0.0, SVG Export Plug-In . SVG Version: 6.00 Build 0)  -->
<svg xmlns="http://www.w3.org/2000/svg" xmlns:xlink="http://www.w3.org/1999/xlink" version="1.1" id="Layer_1" x="0px" y="0px" viewBox="0 0 512 512" style="enable-background:new 0 0 512 512;" xml:space="preserve">
<g>
	<g>
		<rect x="166.957" width="178.087" height="33.391"/>
	</g>
</g>
<g>
	<g>
		<rect x="100.174" y="33.391" width="66.783" height="33.391"/>
	</g>
</g>
<g>
	<g>
		<rect x="33.391" y="100.174" width="33.391" height="66.783"/>
	</g>
</g>
<g>
	<g>
		<polygon points="33.391,311.652 33.391,166.957 0,166.957 0,411.826 33.391,411.826 33.391,345.043 66.783,345.043     66.783,311.652   "/>
	</g>
</g>
<g>
	<g>
		<rect x="33.391" y="411.826" width="33.391" height="33.391"/>
	</g>
</g>
<g>
	<g>
		<rect x="66.783" y="445.217" width="100.174" height="33.391"/>
	</g>
</g>
<g>
	<g>
		<rect x="166.957" y="411.826" width="66.783" height="33.391"/>
	</g>
</g>
<g>
	<g>
		<rect x="233.739" y="445.217" width="33.391" height="33.391"/>
	</g>
</g>
<g>
	<g>
		<rect x="267.13" y="478.609" width="178.087" height="33.391"/>
	</g>
</g>
<g>
	<g>
		<rect x="445.217" y="445.217" width="33.391" height="33.391"/>
	</g>
</g>
<g>
	<g>
		<polygon points="478.609,166.957 478.609,345.043 445.217,345.043 445.217,378.435 478.609,378.435 478.609,445.217 512,445.217     512,166.957   "/>
	</g>
</g>
<g>
	<g>
		<rect x="445.217" y="100.174" width="33.391" height="66.783"/>
	</g>
</g>
<g>
	<g>
		<rect x="411.826" y="66.783" width="33.391" height="33.391"/>
	</g>
</g>
<g>
	<g>
		<rect x="345.043" y="33.391" width="66.783" height="33.391"/>
	</g>
</g>
<g>
	<g>
		<rect x="66.783" y="345.043" width="100.174" height="33.391"/>
	</g>
</g>
<g>
	<g>
		<rect x="166.957" y="311.652" width="66.783" height="33.391"/>
	</g>
</g>
<g>
	<g>
		<rect x="233.739" y="345.043" width="33.391" height="33.391"/>
	</g>
</g>
<g>
	<g>
		<rect x="267.13" y="378.435" width="178.087" height="33.391"/>
	</g>
</g>
<g>
	<g>
		<path d="M411.826,166.957v-66.783h-66.783V66.783H166.957v33.391h-66.783v66.783H66.783v144.696h100.174v-33.391h66.783v33.391    h33.391v33.391h178.087V166.957H411.826z M389.565,289.391h-66.783v-66.783h66.783V289.391z"/>
	</g>
</g>
<g>
	<g>
		<rect x="66.783" y="66.783" width="33.391" height="33.391"/>
	</g>
</g>
<g>
</g>
<g>
</g>
<g>
</g>
<g>
</g>
<g>
</g>
<g>
</g>
<g>
</g>
<g>
</g>
<g>
</g>
<g>
</g>
<g>
</g>
<g>
</g>
<g>
</g>
<g>
</g>
<g>
</g>
</svg>
