<?xml version="1.0" encoding="iso-8859-1"?>
<!-- Generator: Adobe Illustrator 19.0.0, SVG Export Plug-In . SVG Version: 6.00 Build 0)  -->
<svg xmlns="http://www.w3.org/2000/svg" xmlns:xlink="http://www.w3.org/1999/xlink" version="1.1" id="Layer_1" x="0px" y="0px" viewBox="0 0 512 512" style="enable-background:new 0 0 512 512;" xml:space="preserve">
<g>
	<g>
		<polygon points="478.609,200.348 478.609,144.696 478.609,133.565 445.217,133.565 445.217,100.174 411.826,100.174     411.826,66.783 345.043,66.783 345.043,33.391 311.652,33.391 311.652,66.783 311.652,133.565 311.652,144.696 200.348,144.696     200.348,133.565 200.348,66.783 200.348,33.391 166.957,33.391 166.957,66.783 100.174,66.783 100.174,100.174 66.783,100.174     66.783,133.565 33.391,133.565 33.391,144.696 33.391,200.348 0,200.348 0,311.652 33.391,311.652 33.391,345.043 66.783,345.043     66.783,400.696 100.174,400.696 100.174,345.043 411.826,345.043 411.826,400.696 445.217,400.696 445.217,345.043     478.609,345.043 478.609,311.652 512,311.652 512,200.348   "/>
	</g>
</g>
<g>
	<g>
		<rect x="378.435" y="400.696" width="33.391" height="77.913"/>
	</g>
</g>
<g>
	<g>
		<rect x="100.174" y="400.696" width="33.391" height="77.913"/>
	</g>
</g>
<g>
	<g>
		<rect x="133.565" y="478.609" width="244.87" height="33.391"/>
	</g>
</g>
<g>
	<g>
		<rect x="178.087" y="367.304" width="33.391" height="77.913"/>
	</g>
</g>
<g>
	<g>
		<rect x="300.522" y="367.304" width="33.391" height="77.913"/>
	</g>
</g>
<g>
	<g>
		<rect x="200.348" width="111.304" height="33.391"/>
	</g>
</g>
<g>
</g>
<g>
</g>
<g>
</g>
<g>
</g>
<g>
</g>
<g>
</g>
<g>
</g>
<g>
</g>
<g>
</g>
<g>
</g>
<g>
</g>
<g>
</g>
<g>
</g>
<g>
</g>
<g>
</g>
</svg>
