<svg xmlns="http://www.w3.org/2000/svg" viewBox="0 0 512 512" shape-rendering="crispEdges"><path d="M200.348 33.391h111.304v33.391H200.348zM311.652 66.783h33.391v33.391h-33.391zM133.565 100.174h33.391v33.391h-33.391zM100.174 133.565h33.391v44.522h-33.391zM66.783 178.087h33.391v66.783H66.783zM33.391 244.87h33.391v66.783H33.391zM0 311.652h33.391v133.565H0zM478.609 311.652H512v133.565h-33.391zM345.043 100.174h33.391v33.391h-33.391zM378.435 133.565h33.391v44.522h-33.391zM411.826 178.087h33.391v66.783h-33.391zM445.217 244.87h33.391v66.783h-33.391zM389.565 445.217V278.261H122.436V445.217H33.391v33.391h445.217v-33.391h-89.043zm-233.739-66.782v-33.391h33.391v-33.391h33.391v33.391h-33.391v33.391h-33.391zm100.174 0v33.391h-33.391v33.391h-33.391v-33.391h33.391v-33.391H256v-33.391h33.391v-33.391h33.391v33.391h-33.391v33.391H256zm100.174 33.391h-33.391v33.391h-33.391v-33.391h33.391v-33.391h33.391v33.391zM166.957 66.783h33.391v33.391h-33.391z"/></svg>