<svg xmlns="http://www.w3.org/2000/svg" viewBox="0 0 512 512" shape-rendering="crispEdges"><path d="M33.391 0h445.217v33.391H33.391zM478.609 33.391H512v122.435h-33.391zM445.217 155.826h33.391v66.783h-33.391zM411.826 100.174v33.391h-33.391v-33.391H66.783v55.652h33.391v66.783h33.391v66.783h33.391v66.783h33.391v33.391h33.391v55.652h44.522v-55.652h33.391v-33.391h33.391v-66.783h33.391v-66.783h33.391v-66.783h33.391v-55.652h-33.389zM166.957 222.609v-66.783h66.783v66.783h-66.783zm111.304 133.565h-44.522v-44.522h44.522v44.522zm44.522-111.304h-44.522v-44.522h44.522v44.522zM33.391 155.826h33.391v66.783H33.391zM0 33.391h33.391v122.435H0zM411.826 222.609h33.391v66.783h-33.391z"/><path d="M66.783 222.609h33.391v66.783H66.783zM100.174 289.391h33.391v66.783h-33.391zM133.565 356.174h33.391v33.391h-33.391zM166.957 389.565h33.391v55.652h-33.391zM200.348 445.217h33.391v33.391h-33.391zM233.739 478.609h44.522V512h-44.522zM278.261 445.217h33.391v33.391h-33.391zM311.652 389.565h33.391v55.652h-33.391zM345.043 356.174h33.391v33.391h-33.391zM378.435 289.391h33.391v66.783h-33.391z"/></svg>