<?xml version="1.0" encoding="iso-8859-1"?>
<!-- Generator: Adobe Illustrator 19.0.0, SVG Export Plug-In . SVG Version: 6.00 Build 0)  -->
<svg xmlns="http://www.w3.org/2000/svg" xmlns:xlink="http://www.w3.org/1999/xlink" version="1.1" id="Layer_1" x="0px" y="0px" viewBox="0 0 512 512" style="enable-background:new 0 0 512 512;" xml:space="preserve">
<g>
	<g>
		<rect x="33.391" width="445.217" height="33.391"/>
	</g>
</g>
<g>
	<g>
		<rect x="478.609" y="33.391" width="33.391" height="122.435"/>
	</g>
</g>
<g>
	<g>
		<rect x="445.217" y="155.826" width="33.391" height="66.783"/>
	</g>
</g>
<g>
	<g>
		<path d="M411.826,100.174v33.391h-33.391v-33.391H66.783v55.652h33.391v66.783h33.391v66.783h33.391v66.783h33.391v33.391h33.391    v55.652h44.522v-55.652h33.391v-33.391h33.391v-66.783h33.391v-66.783h33.391v-66.783h33.391v-55.652H411.826z M166.957,222.609    v-66.783h66.783v66.783H166.957z M278.261,356.174h-44.522v-44.522h44.522V356.174z M322.783,244.87h-44.522v-44.522h44.522    V244.87z"/>
	</g>
</g>
<g>
	<g>
		<rect x="33.391" y="155.826" width="33.391" height="66.783"/>
	</g>
</g>
<g>
	<g>
		<rect y="33.391" width="33.391" height="122.435"/>
	</g>
</g>
<g>
	<g>
		<rect x="411.826" y="222.609" width="33.391" height="66.783"/>
	</g>
</g>
<g>
	<g>
		<rect x="66.783" y="222.609" width="33.391" height="66.783"/>
	</g>
</g>
<g>
	<g>
		<rect x="100.174" y="289.391" width="33.391" height="66.783"/>
	</g>
</g>
<g>
	<g>
		<rect x="133.565" y="356.174" width="33.391" height="33.391"/>
	</g>
</g>
<g>
	<g>
		<rect x="166.957" y="389.565" width="33.391" height="55.652"/>
	</g>
</g>
<g>
	<g>
		<rect x="200.348" y="445.217" width="33.391" height="33.391"/>
	</g>
</g>
<g>
	<g>
		<rect x="233.739" y="478.609" width="44.522" height="33.391"/>
	</g>
</g>
<g>
	<g>
		<rect x="278.261" y="445.217" width="33.391" height="33.391"/>
	</g>
</g>
<g>
	<g>
		<rect x="311.652" y="389.565" width="33.391" height="55.652"/>
	</g>
</g>
<g>
	<g>
		<rect x="345.043" y="356.174" width="33.391" height="33.391"/>
	</g>
</g>
<g>
	<g>
		<rect x="378.435" y="289.391" width="33.391" height="66.783"/>
	</g>
</g>
<g>
</g>
<g>
</g>
<g>
</g>
<g>
</g>
<g>
</g>
<g>
</g>
<g>
</g>
<g>
</g>
<g>
</g>
<g>
</g>
<g>
</g>
<g>
</g>
<g>
</g>
<g>
</g>
<g>
</g>
</svg>
