<?xml version="1.0" encoding="iso-8859-1"?>
<!-- Generator: Adobe Illustrator 19.0.0, SVG Export Plug-In . SVG Version: 6.00 Build 0)  -->
<svg xmlns="http://www.w3.org/2000/svg" xmlns:xlink="http://www.w3.org/1999/xlink" version="1.1" id="Layer_1" x="0px" y="0px" viewBox="0 0 512 512" style="enable-background:new 0 0 512 512;" xml:space="preserve">
<g>
	<g>
		<polygon points="33.391,166.957 33.391,322.783 66.783,322.783 66.783,411.826 100.174,411.826 100.174,445.217 333.913,445.217     333.913,411.826 367.304,411.826 367.304,322.783 400.696,322.783 400.696,267.13 478.609,267.13 478.609,233.739     400.696,233.739 400.696,200.348 478.609,200.348 478.609,233.739 512,233.739 512,166.957   "/>
	</g>
</g>
<g>
	<g>
		<rect y="478.609" width="512" height="33.391"/>
	</g>
</g>
<g>
	<g>
		<rect x="89.044" y="100.174" width="33.391" height="33.391"/>
	</g>
</g>
<g>
	<g>
		<rect x="122.435" y="66.783" width="33.391" height="33.391"/>
	</g>
</g>
<g>
	<g>
		<rect x="89.044" y="33.391" width="33.391" height="33.391"/>
	</g>
</g>
<g>
	<g>
		<rect x="122.435" width="33.391" height="33.391"/>
	</g>
</g>
<g>
	<g>
		<rect x="189.217" y="33.391" width="33.391" height="33.391"/>
	</g>
</g>
<g>
	<g>
		<rect x="222.609" y="66.783" width="33.391" height="33.391"/>
	</g>
</g>
<g>
	<g>
		<rect x="189.217" y="100.174" width="33.391" height="33.391"/>
	</g>
</g>
<g>
	<g>
		<rect x="289.391" y="100.174" width="33.391" height="33.391"/>
	</g>
</g>
<g>
	<g>
		<rect x="322.783" y="66.783" width="33.391" height="33.391"/>
	</g>
</g>
<g>
	<g>
		<rect x="289.391" y="33.391" width="33.391" height="33.391"/>
	</g>
</g>
<g>
	<g>
		<rect x="322.783" width="33.391" height="33.391"/>
	</g>
</g>
<g>
	<g>
		<rect x="222.609" width="33.391" height="33.391"/>
	</g>
</g>
<g>
</g>
<g>
</g>
<g>
</g>
<g>
</g>
<g>
</g>
<g>
</g>
<g>
</g>
<g>
</g>
<g>
</g>
<g>
</g>
<g>
</g>
<g>
</g>
<g>
</g>
<g>
</g>
<g>
</g>
</svg>
