<?xml version="1.0" encoding="iso-8859-1"?>
<!-- Generator: Adobe Illustrator 19.0.0, SVG Export Plug-In . SVG Version: 6.00 Build 0)  -->
<svg xmlns="http://www.w3.org/2000/svg" xmlns:xlink="http://www.w3.org/1999/xlink" version="1.1" id="Layer_1" x="0px" y="0px" viewBox="0 0 512 512" style="enable-background:new 0 0 512 512;" xml:space="preserve">
<g>
	<g>
		<path d="M478.609,55.652V22.261H33.391v33.391H0v400.696h33.391v33.391h445.217v-33.391H512V55.652H478.609z M33.391,155.826    h33.391v-33.391h33.391V89.043h33.391V55.652h33.391v33.391h-33.391v33.391h-33.391v33.391H66.783v33.391H33.391V155.826z     M478.609,389.565h-33.391v33.391h-33.391v33.391h-33.391v-33.391h33.391v-33.391h33.391v-33.391h33.391V389.565z     M478.609,189.217h-33.391v33.391h-33.391V256h-33.391v33.391h100.174v33.391H345.043v33.391h-33.391v33.391h-33.391v33.391    H244.87v33.391h-33.391v-33.391h33.391v-33.391h33.391v-33.391h33.391v-33.391H200.348v33.391h-33.391v33.391h-33.391v33.391    h-33.391v33.391H66.783v-33.391h33.391v-33.391h33.391v-33.391h33.391v-33.391H33.391v-33.391h33.391V256h33.391v-33.391h33.391    v-33.391h33.391v-33.391h33.391v-33.391h33.391V89.043h33.391V55.652h33.391v33.391H267.13v33.391h-33.391v33.391h-33.391v33.391    h-33.391v33.391h-33.391V256h-33.391v33.391h111.304V256h33.391v-33.391h33.391v-33.391h33.391v-33.391h33.391v-33.391h33.391    V89.043h33.391V55.652h33.391v33.391h-33.391v33.391h-33.391v33.391h-33.391v33.391h-33.391v33.391h-33.391V256H244.87v33.391    h100.174V256h33.391v-33.391h33.391v-33.391h33.391v-33.391h33.391V189.217z"/>
	</g>
</g>
<g>
</g>
<g>
</g>
<g>
</g>
<g>
</g>
<g>
</g>
<g>
</g>
<g>
</g>
<g>
</g>
<g>
</g>
<g>
</g>
<g>
</g>
<g>
</g>
<g>
</g>
<g>
</g>
<g>
</g>
</svg>
