<?xml version="1.0" encoding="iso-8859-1"?>
<!-- Generator: Adobe Illustrator 19.0.0, SVG Export Plug-In . SVG Version: 6.00 Build 0)  -->
<svg xmlns="http://www.w3.org/2000/svg" xmlns:xlink="http://www.w3.org/1999/xlink" version="1.1" id="Layer_1" x="0px" y="0px" viewBox="0 0 512 512" style="enable-background:new 0 0 512 512;" xml:space="preserve">
<g>
	<g>
		<path d="M461.913,166.957v-66.783h-33.391V66.783H395.13V33.391h-44.522V0H250.435h-33.391H83.478v33.391H50.087v33.391H16.696    v100.174h33.391v33.391h33.391v33.391h133.565h33.391h44.522v33.391h33.391v-33.391h22.261h11.13v-33.391h33.391v-33.391h22.261    h11.13v33.391H395.13v33.391h-33.391v33.391h-33.391v44.522h33.391v33.391h33.391v33.391h-33.391v-33.391h-33.391v-33.391H205.913    v77.913h33.391v33.391h55.652V512h66.783v-33.391h33.391v-33.391h33.391v-66.783h33.391v-33.391h33.391V267.13V166.957H461.913z     M250.435,200.348h-33.391V33.391h33.391V200.348z"/>
	</g>
</g>
<g>
</g>
<g>
</g>
<g>
</g>
<g>
</g>
<g>
</g>
<g>
</g>
<g>
</g>
<g>
</g>
<g>
</g>
<g>
</g>
<g>
</g>
<g>
</g>
<g>
</g>
<g>
</g>
<g>
</g>
</svg>
