<svg xmlns="http://www.w3.org/2000/svg" viewBox="0 0 512 512" shape-rendering="crispEdges"><path d="M461.913 166.957v-66.783h-33.391V66.783H395.13V33.391h-44.522V0H83.478v33.391H50.087v33.391H16.696v100.174h33.391v33.391h33.391v33.391H294.956v33.391h33.391v-33.391h33.391v-33.391h33.391v-33.391h33.391v33.391h-33.39v33.391h-33.391v33.391h-33.391v44.522h33.391v33.391h33.391v33.391h-33.391v-33.391h-33.391v-33.391H205.913v77.913h33.391v33.391h55.652V512h66.783v-33.391h33.391v-33.391h33.391v-66.783h33.391v-33.391h33.391V166.957h-33.39zm-211.478 33.391h-33.391V33.391h33.391v166.957z"/></svg>