<svg xmlns="http://www.w3.org/2000/svg" viewBox="0 0 512 512" shape-rendering="crispEdges"><path d="M102.4 375.467h34.133V409.6H102.4zM68.267 409.6H102.4v34.133H68.267zM34.133 443.733h34.133v34.133H34.133z"/><path d="M273.067 273.067v-34.134h-34.134V204.8h-68.266v34.133h-34.134v34.134H68.267v102.4H102.4V307.2h34.133v34.133h34.134v34.134H204.8V409.6h-68.267v34.133h102.4v-68.266h34.134v-34.134H307.2v-68.266z"/><path d="M375.467 170.667v-34.134h-34.134V102.4h-68.266v34.133h-34.134V204.8h34.134v34.133H307.2v34.134h68.267v-34.134H409.6v-68.266z"/><path d="M477.867 34.133V0h-102.4v34.133h-34.134V102.4h34.134v34.133H409.6v34.134h68.267v-34.134H512v-102.4zM0 477.867h34.133V512H0z"/></svg>