<?xml version="1.0" encoding="iso-8859-1"?>
<!-- Generator: Adobe Illustrator 19.0.0, SVG Export Plug-In . SVG Version: 6.00 Build 0)  -->
<svg xmlns="http://www.w3.org/2000/svg" xmlns:xlink="http://www.w3.org/1999/xlink" version="1.1" id="Layer_1" x="0px" y="0px" viewBox="0 0 512 512" style="enable-background:new 0 0 512 512;" xml:space="preserve">
<g>
	<g>
		<rect x="102.4" y="375.467" width="34.133" height="34.133"/>
	</g>
</g>
<g>
	<g>
		<rect x="68.267" y="409.6" width="34.133" height="34.133"/>
	</g>
</g>
<g>
	<g>
		<rect x="34.133" y="443.733" width="34.133" height="34.133"/>
	</g>
</g>
<g>
	<g>
		<polygon points="273.067,273.067 273.067,238.933 238.933,238.933 238.933,204.8 170.667,204.8 170.667,238.933 136.533,238.933     136.533,273.067 68.267,273.067 68.267,375.467 102.4,375.467 102.4,307.2 136.533,307.2 136.533,341.333 170.667,341.333     170.667,375.467 204.8,375.467 204.8,409.6 136.533,409.6 136.533,443.733 238.933,443.733 238.933,375.467 273.067,375.467     273.067,341.333 307.2,341.333 307.2,273.067   "/>
	</g>
</g>
<g>
	<g>
		<polygon points="375.467,170.667 375.467,136.533 341.333,136.533 341.333,102.4 273.067,102.4 273.067,136.533 238.933,136.533     238.933,204.8 273.067,204.8 273.067,238.933 307.2,238.933 307.2,273.067 375.467,273.067 375.467,238.933 409.6,238.933     409.6,170.667   "/>
	</g>
</g>
<g>
	<g>
		<polygon points="477.867,34.133 477.867,0 375.467,0 375.467,34.133 341.333,34.133 341.333,102.4 375.467,102.4 375.467,136.533     409.6,136.533 409.6,170.667 477.867,170.667 477.867,136.533 512,136.533 512,34.133   "/>
	</g>
</g>
<g>
	<g>
		<rect y="477.867" width="34.133" height="34.133"/>
	</g>
</g>
<g>
</g>
<g>
</g>
<g>
</g>
<g>
</g>
<g>
</g>
<g>
</g>
<g>
</g>
<g>
</g>
<g>
</g>
<g>
</g>
<g>
</g>
<g>
</g>
<g>
</g>
<g>
</g>
<g>
</g>
</svg>
