<?xml version="1.0" encoding="iso-8859-1"?>
<!-- Generator: Adobe Illustrator 19.0.0, SVG Export Plug-In . SVG Version: 6.00 Build 0)  -->
<svg xmlns="http://www.w3.org/2000/svg" xmlns:xlink="http://www.w3.org/1999/xlink" version="1.1" id="Layer_1" x="0px" y="0px" viewBox="0 0 512 512" style="enable-background:new 0 0 512 512;" xml:space="preserve">
<g>
	<g>
		<rect x="66.783" y="445.217" width="378.435" height="33.391"/>
	</g>
</g>
<g>
	<g>
		<path d="M478.609,66.783V33.391H33.391v33.391H0v233.739h33.391v144.696h33.391V333.913h378.435v111.304h33.391V300.522H512    V66.783H478.609z M33.391,200.348v-33.391h33.391v-33.391h33.391v-33.391h33.391V66.783h33.391v33.391h-33.391v33.391h-33.391    v33.391H66.783v33.391H33.391z M200.348,200.348h-33.391v33.391h-33.391v33.391h-33.391v33.391H66.783V267.13h33.391v-33.391    h33.391v-33.391h33.391v-33.391h33.391v-33.391h33.391v-33.391h33.391V66.783h33.391v33.391H267.13v33.391h-33.391v33.391h-33.391    V200.348z M311.652,233.739h-33.391v33.391H244.87v33.391h-33.391V267.13h33.391v-33.391h33.391v-33.391h33.391v-33.391h33.391    v-33.391h33.391v-33.391h33.391V66.783h33.391v33.391h-33.391v33.391h-33.391v33.391h-33.391v33.391h-33.391V233.739z     M478.609,200.348h-33.391v33.391h-33.391v33.391h-33.391v33.391h-33.391V267.13h33.391v-33.391h33.391v-33.391h33.391v-33.391    h33.391V200.348z"/>
	</g>
</g>
<g>
</g>
<g>
</g>
<g>
</g>
<g>
</g>
<g>
</g>
<g>
</g>
<g>
</g>
<g>
</g>
<g>
</g>
<g>
</g>
<g>
</g>
<g>
</g>
<g>
</g>
<g>
</g>
<g>
</g>
</svg>
