<?xml version="1.0" encoding="iso-8859-1"?>
<!-- Generator: Adobe Illustrator 19.0.0, SVG Export Plug-In . SVG Version: 6.00 Build 0)  -->
<svg xmlns="http://www.w3.org/2000/svg" xmlns:xlink="http://www.w3.org/1999/xlink" version="1.1" id="Layer_1" x="0px" y="0px" viewBox="0 0 512 512" style="enable-background:new 0 0 512 512;" xml:space="preserve">
<g>
	<g>
		<rect x="100.174" y="33.391" width="111.304" height="33.391"/>
	</g>
</g>
<g>
	<g>
		<polygon points="267.13,66.783 267.13,0 233.739,0 233.739,66.783 211.478,66.783 211.478,100.174 233.739,100.174     233.739,122.435 267.13,122.435 267.13,100.174 300.522,100.174 300.522,66.783   "/>
	</g>
</g>
<g>
	<g>
		<polygon points="478.609,155.826 478.609,100.174 445.217,100.174 445.217,122.435 345.043,122.435 345.043,189.217     289.391,189.217 289.391,155.826 222.609,155.826 222.609,189.217 166.957,189.217 166.957,122.435 66.783,122.435     66.783,100.174 33.391,100.174 33.391,155.826 0,155.826 0,345.043 33.391,345.043 33.391,411.826 66.783,411.826 66.783,445.217     100.174,445.217 100.174,478.609 166.957,478.609 166.957,512 345.043,512 345.043,478.609 411.826,478.609 411.826,445.217     445.217,445.217 445.217,411.826 478.609,411.826 478.609,345.043 512,345.043 512,155.826   "/>
	</g>
</g>
<g>
	<g>
		<rect x="411.826" y="66.783" width="33.391" height="33.391"/>
	</g>
</g>
<g>
	<g>
		<rect x="300.522" y="33.391" width="111.304" height="33.391"/>
	</g>
</g>
<g>
	<g>
		<rect x="66.783" y="66.783" width="33.391" height="33.391"/>
	</g>
</g>
<g>
</g>
<g>
</g>
<g>
</g>
<g>
</g>
<g>
</g>
<g>
</g>
<g>
</g>
<g>
</g>
<g>
</g>
<g>
</g>
<g>
</g>
<g>
</g>
<g>
</g>
<g>
</g>
<g>
</g>
</svg>
