<?xml version="1.0" encoding="iso-8859-1"?>
<!-- Generator: Adobe Illustrator 19.0.0, SVG Export Plug-In . SVG Version: 6.00 Build 0)  -->
<svg xmlns="http://www.w3.org/2000/svg" xmlns:xlink="http://www.w3.org/1999/xlink" version="1.1" id="Layer_1" x="0px" y="0px" viewBox="0 0 512 512" style="enable-background:new 0 0 512 512;" xml:space="preserve">
<g>
	<g>
		<polygon points="133.565,0 133.565,100.174 178.087,100.174 178.087,133.565 211.478,133.565 211.478,66.783 166.957,66.783     166.957,33.391 345.043,33.391 345.043,66.783 300.522,66.783 300.522,133.565 333.913,133.565 333.913,100.174 378.435,100.174     378.435,0   "/>
	</g>
</g>
<g>
	<g>
		<rect x="144.696" y="133.565" width="33.391" height="33.391"/>
	</g>
</g>
<g>
	<g>
		<rect x="333.913" y="133.565" width="33.391" height="33.391"/>
	</g>
</g>
<g>
	<g>
		<path d="M367.304,166.957v33.391H144.696v-33.391h-33.391V512h289.391V166.957H367.304z M211.478,445.217h-33.391V345.043h33.391    V445.217z M211.478,311.652h-33.391v-33.391h33.391V311.652z"/>
	</g>
</g>
<g>
</g>
<g>
</g>
<g>
</g>
<g>
</g>
<g>
</g>
<g>
</g>
<g>
</g>
<g>
</g>
<g>
</g>
<g>
</g>
<g>
</g>
<g>
</g>
<g>
</g>
<g>
</g>
<g>
</g>
</svg>
