<svg xmlns="http://www.w3.org/2000/svg" viewBox="0 -0.5 10 10" shape-rendering="crispEdges">
<metadata>Made with Pixels to Svg https://codepen.io/shshaw/pen/XbxvNj</metadata>
<path stroke="#000000" d="M0 0h4M0 1h1M4 1h1M0 2h1M2 2h1M5 2h1M0 3h1M6 3h1M1 4h1M7 4h1M2 5h1M8 5h1M3 6h1M9 6h1M4 7h1M8 7h1M5 8h1M7 8h1M6 9h1" />
<path stroke="#ffffff" d="M4 0h6M1 1h3M5 1h5M1 2h1M3 2h2M6 2h4M1 3h5M7 3h3M0 4h1M2 4h5M8 4h2M0 5h2M3 5h5M9 5h1M0 6h3M4 6h5M0 7h4M5 7h3M9 7h1M0 8h5M6 8h1M8 8h2M0 9h6M7 9h3" />
</svg>