<svg xmlns="http://www.w3.org/2000/svg" viewBox="0 -0.5 10 10" shape-rendering="crispEdges">
<metadata>Made with Pixels to Svg https://codepen.io/shshaw/pen/XbxvNj</metadata>
<path stroke="#ffffff" d="M0 0h10M0 1h4M7 1h3M0 2h3M4 2h2M7 2h3M0 3h3M4 3h1M6 3h1M9 3h1M0 4h3M4 4h2M7 4h1M9 4h1M0 5h2M3 5h1M5 5h3M9 5h1M0 6h1M2 6h3M8 6h2M1 7h3M5 7h5M1 8h2M4 8h6M3 9h7" />
<path stroke="#000000" d="M4 1h3M3 2h1M6 2h1M3 3h1M5 3h1M7 3h2M3 4h1M6 4h1M8 4h1M2 5h1M4 5h1M8 5h1M1 6h1M5 6h3M0 7h1M4 7h1M0 8h1M3 8h1M0 9h3" />
</svg>