<?xml version="1.0" encoding="iso-8859-1"?>
<!-- Generator: Adobe Illustrator 19.0.0, SVG Export Plug-In . SVG Version: 6.00 Build 0)  -->
<svg version="1.1" id="Layer_1" xmlns="http://www.w3.org/2000/svg" xmlns:xlink="http://www.w3.org/1999/xlink" x="0px" y="0px"
	 viewBox="0 0 512 512" style="enable-background:new 0 0 512 512;" xml:space="preserve">
<g>
	<rect x="478.609" y="133.565" style="fill:#DDB200;" width="33.391" height="278.261"/>
	<polygon style="fill:#DDB200;" points="389.565,133.565 478.609,133.565 478.609,100.174 389.565,100.174 389.565,33.391 
		356.174,33.391 356.174,33.391 356.174,0 33.391,0 33.391,33.391 0,33.391 0,478.609 22.261,478.609 33.391,478.609 33.391,512 
		356.174,512 356.174,478.609 367.304,478.609 389.565,478.609 389.565,445.217 478.609,445.217 478.609,411.826 389.565,411.826 	
		"/>
</g>
<polygon style="fill:#FFFFFF;" points="356.174,33.391 356.174,0 33.391,0 33.391,33.391 0,33.391 0,133.565 389.565,133.565 
	389.565,33.391 "/>
<rect x="33.391" y="478.609" width="322.783" height="33.391"/>
<polygon points="389.565,133.565 478.609,133.565 478.609,100.174 389.565,100.174 389.565,33.391 356.174,33.391 356.174,100.174 
	33.391,100.174 33.391,33.391 356.174,33.391 356.174,0 33.391,0 33.391,33.391 0,33.391 0,478.609 33.391,478.609 33.391,133.565 
	356.174,133.565 356.174,478.609 389.565,478.609 389.565,445.217 478.609,445.217 478.609,411.826 389.565,411.826 "/>
<rect x="478.609" y="133.565" width="33.391" height="278.261"/>
<rect x="77.913" y="166.957" width="33.391" height="278.261"/>
<rect x="278.261" y="166.957" width="33.391" height="278.261"/>
<rect x="178.087" y="166.957" width="33.391" height="278.261"/>
<g>
</g>
<g>
</g>
<g>
</g>
<g>
</g>
<g>
</g>
<g>
</g>
<g>
</g>
<g>
</g>
<g>
</g>
<g>
</g>
<g>
</g>
<g>
</g>
<g>
</g>
<g>
</g>
<g>
</g>
</svg>
