<svg xmlns="http://www.w3.org/2000/svg" viewBox="0 -0.5 10 10" shape-rendering="crispEdges">
<metadata>Made with Pixels to Svg https://codepen.io/shshaw/pen/XbxvNj</metadata>
<path stroke="#ffffff" d="M0 0h2M3 0h1M5 0h1M7 0h1M9 0h1M0 1h1M0 2h1M0 3h1M2 3h7M0 4h1M2 4h2M6 4h3M0 5h1M2 5h3M6 5h3M0 6h1M2 6h3M6 6h3M0 7h1M2 7h2M7 7h2M0 8h1M2 8h7M0 9h1" />
<path stroke="#000000" d="M2 0h1M4 0h1M6 0h1M8 0h1M1 1h9M1 2h9M1 3h1M9 3h1M1 4h1M4 4h2M9 4h1M1 5h1M5 5h1M9 5h1M1 6h1M5 6h1M9 6h1M1 7h1M4 7h3M9 7h1M1 8h1M9 8h1M1 9h9" />
</svg>