<svg xmlns="http://www.w3.org/2000/svg" viewBox="0 -0.5 10 10" shape-rendering="crispEdges">
<metadata>Made with Pixels to Svg https://codepen.io/shshaw/pen/XbxvNj</metadata>
<path stroke="#ffffff" d="M0 0h10M0 1h1M3 1h2M6 1h1M8 1h1M0 2h1M4 2h1M6 2h1M8 2h1M0 3h1M4 3h1M0 4h1M4 4h3M8 4h2M0 5h1M3 5h3M9 5h1M0 6h1M3 6h3M9 6h1M0 7h1M3 7h3M9 7h1M0 8h1M3 8h3M9 8h1M0 9h1M3 9h3M9 9h1" />
<path stroke="#000000" d="M1 1h2M5 1h1M7 1h1M9 1h1M1 2h3M5 2h1M7 2h1M9 2h1M1 3h3M5 3h5M1 4h3M7 4h1M1 5h2M6 5h3M1 6h2M6 6h3M1 7h2M6 7h3M1 8h2M6 8h3M1 9h2M6 9h3" />
</svg>