<svg xmlns="http://www.w3.org/2000/svg" viewBox="0 -0.5 10 10" shape-rendering="crispEdges">
<metadata>Made with Pixels to Svg https://codepen.io/shshaw/pen/XbxvNj</metadata>
<path stroke="#ffffff" d="M0 0h10M0 1h4M6 1h4M0 2h3M4 2h2M7 2h3M0 3h3M4 3h2M7 3h3M0 4h2M3 4h1M6 4h1M8 4h2M0 5h2M3 5h1M6 5h1M8 5h2M0 6h1M2 6h6M9 6h1M0 7h1M2 7h2M6 7h2M9 7h1M1 8h8" />
<path stroke="#000000" d="M4 1h2M3 2h1M6 2h1M3 3h1M6 3h1M2 4h1M4 4h2M7 4h1M2 5h1M4 5h2M7 5h1M1 6h1M8 6h1M1 7h1M4 7h2M8 7h1M0 8h1M9 8h1M0 9h10" />
</svg>