<svg xmlns="http://www.w3.org/2000/svg" width="13" height="13" shape-rendering="crispEdges"><path d="M5 12h1v1H5m1-1h1v1H6m1-1h1v1H7m-2-2h1v1H5m1-1h1v1H6m1-1h1v1H7m-2-2h1v1H5m1-1h1v1H6m1-1h1v1H7M5 8h1v1H5m1-1h1v1H6m1-1h1v1H7M5 7h1v1H5m1-1h1v1H6m1-1h1v1H7M5 6h1v1H5m1-1h1v1H6m1-1h1v1H7m1-1h1v1H8M6 5h1v1H6m1-1h1v1H7m1-1h1v1H8m1-1h1v1H9M7 4h1v1H7m1-1h1v1H8m1-1h1v1H9m1-1h1v1h-1M8 3h1v1H8m1-1h1v1H9m1-1h1v1h-1M2 3h1v1H2m1-1h1v1H3m1-1h1v1H4m4-2h1v1H8m1-1h1v1H9m1-1h1v1h-1M2 2h1v1H2m1-1h1v1H3m1-1h1v1H4m1-1h1v1H5M3 1h1v1H3m1-1h1v1H4m1-1h1v1H5m1-1h1v1H6m1-1h1v1H7m1-1h1v1H8m1-1h1v1H9M4 0h1v1H4m1-1h1v1H5m1-1h1v1H6m1-1h1v1H7m1-1h1v1H8"/></svg>